%TF.GenerationSoftware,KiCad,Pcbnew,(7.0.0)*%
%TF.CreationDate,2023-11-14T21:29:08+01:00*%
%TF.ProjectId,reversepcb1,72657665-7273-4657-9063-62312e6b6963,rev?*%
%TF.SameCoordinates,Original*%
%TF.FileFunction,Copper,L2,Bot*%
%TF.FilePolarity,Positive*%
%FSLAX46Y46*%
G04 Gerber Fmt 4.6, Leading zero omitted, Abs format (unit mm)*
G04 Created by KiCad (PCBNEW (7.0.0)) date 2023-11-14 21:29:08*
%MOMM*%
%LPD*%
G01*
G04 APERTURE LIST*
%TA.AperFunction,ComponentPad*%
%ADD10R,1.800000X1.800000*%
%TD*%
%TA.AperFunction,ComponentPad*%
%ADD11O,1.800000X1.800000*%
%TD*%
%TA.AperFunction,ComponentPad*%
%ADD12C,1.200000*%
%TD*%
%TA.AperFunction,ComponentPad*%
%ADD13C,1.400000*%
%TD*%
%TA.AperFunction,ComponentPad*%
%ADD14O,1.400000X1.400000*%
%TD*%
%TA.AperFunction,ComponentPad*%
%ADD15R,1.600000X1.600000*%
%TD*%
%TA.AperFunction,ComponentPad*%
%ADD16O,1.600000X1.600000*%
%TD*%
%TA.AperFunction,ComponentPad*%
%ADD17R,1.050000X1.300000*%
%TD*%
%TA.AperFunction,ComponentPad*%
%ADD18O,1.050000X1.300000*%
%TD*%
%TA.AperFunction,ComponentPad*%
%ADD19C,1.524000*%
%TD*%
%TA.AperFunction,ViaPad*%
%ADD20C,1.600000*%
%TD*%
%TA.AperFunction,Conductor*%
%ADD21C,0.400000*%
%TD*%
G04 APERTURE END LIST*
D10*
%TO.P,D1,1,K*%
%TO.N,Net-(D7-K)*%
X167619999Y-113919999D03*
D11*
%TO.P,D1,2,A*%
%TO.N,Net-(D7-A)*%
X167619999Y-121539999D03*
%TD*%
D12*
%TO.P,EC2,1*%
%TO.N,Net-(D5-A)*%
X146950000Y-107000000D03*
%TO.P,EC2,2*%
%TO.N,Net-(Dzd1-A)*%
X145450000Y-107000000D03*
%TD*%
D13*
%TO.P,R3,1*%
%TO.N,Net-(Q1-Pad3)*%
X144850000Y-118150000D03*
D14*
%TO.P,R3,2*%
%TO.N,Net-(Dzd1-A)*%
X144849999Y-110529999D03*
%TD*%
D15*
%TO.P,D3,1,K*%
%TO.N,Net-(Dzd1-K)*%
X137549999Y-102999999D03*
D16*
%TO.P,D3,2,A*%
%TO.N,Net-(Dzd1-A)*%
X145169999Y-102999999D03*
%TD*%
D13*
%TO.P,R4,1*%
%TO.N,Net-(Dzd1-K)*%
X137450000Y-100350000D03*
D14*
%TO.P,R4,2*%
%TO.N,Net-(Dzd1-A)*%
X145069999Y-100349999D03*
%TD*%
D13*
%TO.P,R1,1*%
%TO.N,Net-(D7-K)*%
X167810000Y-109090000D03*
D14*
%TO.P,R1,2*%
%TO.N,Net-(T1-AB)*%
X167809999Y-101469999D03*
%TD*%
D10*
%TO.P,D1,1,K*%
%TO.N,Net-(D1-K)*%
X128279999Y-108359999D03*
D11*
%TO.P,D1,2,A*%
%TO.N,Net-(D1-A)*%
X128279999Y-100739999D03*
%TD*%
D12*
%TO.P,EC1,1*%
%TO.N,Net-(D7-K)*%
X162080000Y-104350000D03*
%TO.P,EC1,2*%
%TO.N,Net-(T1-AB)*%
X160580000Y-104350000D03*
%TD*%
D10*
%TO.P,Q2,1,1*%
%TO.N,Net-(D6-K)*%
X136899999Y-118244999D03*
D11*
%TO.P,Q2,2,2*%
%TO.N,Net-(T1-SB)*%
X139439999Y-118244999D03*
%TO.P,Q2,3,3*%
%TO.N,Net-(Q1-Pad3)*%
X141979999Y-118244999D03*
%TD*%
D17*
%TO.P,Q1,1,E*%
%TO.N,Net-(D1-A)*%
X140339999Y-106229999D03*
D18*
%TO.P,Q1,2,C*%
%TO.N,Net-(D6-K)*%
X141609999Y-106229999D03*
%TO.P,Q1,3,B*%
%TO.N,Net-(Dzd1-K)*%
X142879999Y-106229999D03*
%TD*%
D10*
%TO.P,D2,1,K*%
%TO.N,Net-(D2-K)*%
X128249999Y-121969999D03*
D11*
%TO.P,D2,2,A*%
%TO.N,Net-(D1-K)*%
X128249999Y-114349999D03*
%TD*%
D12*
%TO.P,EC5,1*%
%TO.N,Net-(D2-K)*%
X139300000Y-113590000D03*
%TO.P,EC5,2*%
%TO.N,Net-(D1-A)*%
X139300000Y-112090000D03*
%TD*%
D13*
%TO.P,R5,1*%
%TO.N,Net-(D6-K)*%
X147940000Y-121280000D03*
D14*
%TO.P,R5,2*%
%TO.N,Net-(C2-Pad1)*%
X147939999Y-113659999D03*
%TD*%
D10*
%TO.P,D4,1,K*%
%TO.N,Net-(D2-K)*%
X131959999Y-121949999D03*
D11*
%TO.P,D4,2,A*%
%TO.N,Net-(D3-K)*%
X131959999Y-114329999D03*
%TD*%
D10*
%TO.P,D2,1,K*%
%TO.N,Net-(D5-K)*%
X151089999Y-103399999D03*
D11*
%TO.P,D2,2,A*%
%TO.N,Net-(D5-A)*%
X151089999Y-111019999D03*
%TD*%
D15*
%TO.P,ZD4,1,K*%
%TO.N,Net-(D6-K)*%
X151129999Y-121319999D03*
D16*
%TO.P,ZD4,2,A*%
%TO.N,Net-(D5-A)*%
X151129999Y-113699999D03*
%TD*%
D10*
%TO.P,D3,1,K*%
%TO.N,Net-(D3-K)*%
X132069999Y-108369999D03*
D11*
%TO.P,D3,2,A*%
%TO.N,Net-(D1-A)*%
X132069999Y-100749999D03*
%TD*%
D13*
%TO.P,R2,1*%
%TO.N,Net-(Dzd1-A)*%
X147300000Y-100430000D03*
D14*
%TO.P,R2,2*%
%TO.N,Net-(D1-A)*%
X154919999Y-100429999D03*
%TD*%
D13*
%TO.P,R6,1*%
%TO.N,Net-(D2-K)*%
X136160000Y-121900000D03*
D14*
%TO.P,R6,2*%
%TO.N,Net-(D6-K)*%
X143779999Y-121899999D03*
%TD*%
D13*
%TO.P,C1,1*%
%TO.N,Net-(C2-Pad1)*%
X154900000Y-106680000D03*
%TO.P,C1,2*%
%TO.N,Net-(D5-K)*%
X154900000Y-104180000D03*
%TD*%
D19*
%TO.P,T1,1,AA*%
%TO.N,Net-(D7-A)*%
X163690000Y-121060000D03*
%TO.P,T1,2,AB*%
%TO.N,Net-(T1-AB)*%
X163690000Y-110060000D03*
%TO.P,T1,3,SA*%
%TO.N,Net-(D2-K)*%
X154690000Y-121060000D03*
%TO.P,T1,4,SB*%
%TO.N,Net-(T1-SB)*%
X154690000Y-118060000D03*
%TO.P,T1,5,SC*%
%TO.N,Net-(D1-A)*%
X154690000Y-113060000D03*
%TO.P,T1,6,SD*%
%TO.N,Net-(D5-K)*%
X154690000Y-110060000D03*
%TD*%
D20*
%TO.N,Net-(D7-K)*%
X167690000Y-111410000D03*
%TO.N,Net-(D1-K)*%
X128260000Y-111490000D03*
%TO.N,Net-(D3-K)*%
X132020000Y-111450000D03*
%TD*%
D21*
%TO.N,Net-(D1-A)*%
X153450000Y-98960000D02*
X154920000Y-100430000D01*
X136120000Y-98960000D02*
X153450000Y-98960000D01*
X135110000Y-104720000D02*
X135110000Y-99970000D01*
X136620000Y-106230000D02*
X135110000Y-104720000D01*
X140340000Y-106230000D02*
X136620000Y-106230000D01*
X135110000Y-99970000D02*
X136120000Y-98960000D01*
%TO.N,Net-(Dzd1-K)*%
X140970000Y-103000000D02*
X142880000Y-104910000D01*
X137550000Y-103000000D02*
X140970000Y-103000000D01*
X137550000Y-103000000D02*
X137550000Y-100450000D01*
X137550000Y-100450000D02*
X137450000Y-100350000D01*
X142880000Y-104910000D02*
X142880000Y-106230000D01*
%TO.N,Net-(D2-K)*%
X137310000Y-113950000D02*
X135010000Y-116250000D01*
X138780000Y-113590000D02*
X138420000Y-113950000D01*
X135010000Y-120750000D02*
X136160000Y-121900000D01*
X131960000Y-118170000D02*
X131960000Y-121950000D01*
X135010000Y-116250000D02*
X135010000Y-120750000D01*
X139300000Y-113590000D02*
X138780000Y-113590000D01*
X139300000Y-113590000D02*
X136540000Y-113590000D01*
X136540000Y-113590000D02*
X131960000Y-118170000D01*
X138420000Y-113950000D02*
X137310000Y-113950000D01*
%TO.N,Net-(D6-K)*%
X136900000Y-118760000D02*
X136900000Y-118245000D01*
X141610000Y-112790000D02*
X141610000Y-106230000D01*
X136900000Y-118245000D02*
X136900000Y-117500000D01*
X143780000Y-121900000D02*
X140040000Y-121900000D01*
X140040000Y-121900000D02*
X136900000Y-118760000D01*
X136900000Y-117500000D02*
X141610000Y-112790000D01*
%TO.N,Net-(C2-Pad1)*%
X147940000Y-110920000D02*
X152180000Y-106680000D01*
X147940000Y-113660000D02*
X147940000Y-110920000D01*
X152180000Y-106680000D02*
X154900000Y-106680000D01*
%TO.N,Net-(D1-A)*%
X157540000Y-111290000D02*
X155770000Y-113060000D01*
X154920000Y-100430000D02*
X157540000Y-103050000D01*
X140590000Y-106480000D02*
X140590000Y-110800000D01*
X137110000Y-108230000D02*
X139300000Y-110420000D01*
X132070000Y-100750000D02*
X132070000Y-104650000D01*
X157540000Y-103050000D02*
X157540000Y-111290000D01*
X135650000Y-108230000D02*
X137110000Y-108230000D01*
X132070000Y-104650000D02*
X135650000Y-108230000D01*
X155770000Y-113060000D02*
X154690000Y-113060000D01*
X139300000Y-110420000D02*
X139300000Y-112090000D01*
X140590000Y-110800000D02*
X139300000Y-112090000D01*
X140340000Y-106230000D02*
X140590000Y-106480000D01*
%TO.N,Net-(D5-K)*%
X154900000Y-104180000D02*
X156570000Y-105850000D01*
X153820000Y-103400000D02*
X151090000Y-103400000D01*
X154100000Y-103380000D02*
X153840000Y-103380000D01*
X153840000Y-103380000D02*
X153820000Y-103400000D01*
X156570000Y-105850000D02*
X156570000Y-109030000D01*
X154900000Y-104180000D02*
X154100000Y-103380000D01*
X155540000Y-110060000D02*
X154690000Y-110060000D01*
X156570000Y-109030000D02*
X155540000Y-110060000D01*
%TO.N,Net-(D5-A)*%
X144910000Y-114550000D02*
X144910000Y-112880000D01*
X149990000Y-115650000D02*
X146010000Y-115650000D01*
X151130000Y-111060000D02*
X151090000Y-111020000D01*
X144910000Y-112880000D02*
X146950000Y-110840000D01*
X146010000Y-115650000D02*
X144910000Y-114550000D01*
X146950000Y-110840000D02*
X146950000Y-107000000D01*
X151130000Y-114510000D02*
X149990000Y-115650000D01*
X151130000Y-113700000D02*
X151130000Y-114510000D01*
%TO.N,Net-(T1-SB)*%
X146330000Y-119150000D02*
X152990000Y-119150000D01*
X154080000Y-118060000D02*
X154690000Y-118060000D01*
X139440000Y-118245000D02*
X139440000Y-119410000D01*
X140300000Y-120270000D02*
X145210000Y-120270000D01*
X139440000Y-119410000D02*
X140300000Y-120270000D01*
X145210000Y-120270000D02*
X146330000Y-119150000D01*
X152990000Y-119150000D02*
X154080000Y-118060000D01*
%TO.N,Net-(Q1-Pad3)*%
X144755000Y-118245000D02*
X144850000Y-118150000D01*
X141980000Y-118245000D02*
X144755000Y-118245000D01*
%TD*%
%TA.AperFunction,Conductor*%
%TO.N,Net-(D2-K)*%
G36*
X133524358Y-120618071D02*
G01*
X133524359Y-120618072D01*
X133597762Y-120637998D01*
X133651766Y-120691558D01*
X133672300Y-120764793D01*
X133707747Y-123086546D01*
X133696950Y-123144550D01*
X133664486Y-123193815D01*
X133615446Y-123226618D01*
X133557519Y-123237816D01*
X126677266Y-123180321D01*
X126603458Y-123160043D01*
X126549456Y-123105796D01*
X126529512Y-123031897D01*
X126520653Y-120719711D01*
X126531930Y-120662275D01*
X126564460Y-120613615D01*
X126613223Y-120581239D01*
X126670692Y-120570144D01*
X133524358Y-120618071D01*
G37*
%TD.AperFunction*%
%TD*%
%TA.AperFunction,Conductor*%
%TO.N,Net-(D7-K)*%
G36*
X163542213Y-103470440D02*
G01*
X163581971Y-103476549D01*
X163618647Y-103493073D01*
X168696883Y-106667958D01*
X169110783Y-106926726D01*
X169161771Y-106980217D01*
X169180788Y-107051627D01*
X169258536Y-115098543D01*
X169247516Y-115156236D01*
X169215056Y-115205188D01*
X169166200Y-115237791D01*
X169108540Y-115248980D01*
X166429450Y-115230939D01*
X166357939Y-115212106D01*
X166304289Y-115161212D01*
X166281716Y-115090793D01*
X165880778Y-108353078D01*
X165880000Y-108340000D01*
X165868252Y-108334198D01*
X165868251Y-108334197D01*
X163591457Y-107209739D01*
X163569177Y-107196190D01*
X162227788Y-106209977D01*
X161538555Y-105703240D01*
X161494660Y-105652011D01*
X161477859Y-105586676D01*
X161465500Y-105057024D01*
X161472641Y-105007849D01*
X161495553Y-104963760D01*
X161519673Y-104931821D01*
X161610582Y-104749250D01*
X161666397Y-104553083D01*
X161685215Y-104350000D01*
X161666397Y-104146917D01*
X161610582Y-103950750D01*
X161519673Y-103768179D01*
X161515522Y-103762682D01*
X161461675Y-103691376D01*
X161439867Y-103650583D01*
X161431621Y-103605067D01*
X161431257Y-103589496D01*
X161441813Y-103530830D01*
X161474524Y-103480993D01*
X161524153Y-103447968D01*
X161582750Y-103437040D01*
X163542213Y-103470440D01*
G37*
%TD.AperFunction*%
%TD*%
%TA.AperFunction,Conductor*%
%TO.N,Net-(D1-K)*%
G36*
X129817198Y-107071444D02*
G01*
X129865667Y-107104018D01*
X129897894Y-107152718D01*
X129908928Y-107210064D01*
X129880663Y-111166958D01*
X129880654Y-111167831D01*
X129826745Y-115313993D01*
X129806300Y-115387408D01*
X129752228Y-115441111D01*
X129678675Y-115461053D01*
X126748322Y-115479087D01*
X126673896Y-115459695D01*
X126619056Y-115405771D01*
X126598414Y-115331685D01*
X126511610Y-107210593D01*
X126522490Y-107153085D01*
X126554681Y-107104206D01*
X126603214Y-107071495D01*
X126660601Y-107060000D01*
X129759932Y-107060000D01*
X129817198Y-107071444D01*
G37*
%TD.AperFunction*%
%TD*%
%TA.AperFunction,Conductor*%
%TO.N,Net-(D3-K)*%
G36*
X133417960Y-107005155D02*
G01*
X133467145Y-107037801D01*
X133652380Y-107223037D01*
X133685011Y-107272184D01*
X133696011Y-107330143D01*
X133601742Y-115371389D01*
X133580972Y-115445541D01*
X133525955Y-115499420D01*
X133451385Y-115518636D01*
X130479564Y-115491372D01*
X130422520Y-115479451D01*
X130374410Y-115446562D01*
X130342596Y-115397736D01*
X130331944Y-115340444D01*
X130438111Y-107175268D01*
X130458403Y-107102116D01*
X130512102Y-107048456D01*
X130585267Y-107028217D01*
X133359964Y-106994172D01*
X133417960Y-107005155D01*
G37*
%TD.AperFunction*%
%TD*%
%TA.AperFunction,Conductor*%
%TO.N,Net-(Dzd1-A)*%
G36*
X148201386Y-99672088D02*
G01*
X148250035Y-99705049D01*
X148282157Y-99754257D01*
X148292754Y-99812058D01*
X148262649Y-101565650D01*
X148249799Y-101623674D01*
X148215292Y-101672060D01*
X148164619Y-101703111D01*
X148105840Y-101711886D01*
X147134713Y-101660774D01*
X147134711Y-101660774D01*
X147120000Y-101660000D01*
X147119319Y-101674718D01*
X147119319Y-101674719D01*
X146996724Y-104324655D01*
X146973973Y-104397157D01*
X146918428Y-104449011D01*
X146844536Y-104466731D01*
X146114730Y-104450331D01*
X146100000Y-104450000D01*
X146099757Y-104464723D01*
X146099757Y-104464725D01*
X146069634Y-106292132D01*
X146061535Y-106338188D01*
X146039560Y-106379466D01*
X146014480Y-106412678D01*
X146014474Y-106412686D01*
X146010327Y-106418179D01*
X146007259Y-106424339D01*
X146007256Y-106424345D01*
X145922491Y-106594577D01*
X145922488Y-106594583D01*
X145919418Y-106600750D01*
X145917533Y-106607374D01*
X145917531Y-106607380D01*
X145865487Y-106790293D01*
X145865485Y-106790300D01*
X145863603Y-106796917D01*
X145862968Y-106803769D01*
X145862967Y-106803775D01*
X145845421Y-106993136D01*
X145844785Y-107000000D01*
X145863603Y-107203083D01*
X145865486Y-107209701D01*
X145865487Y-107209706D01*
X145909861Y-107365662D01*
X145919418Y-107399250D01*
X146010327Y-107581821D01*
X146016645Y-107590187D01*
X146039399Y-107633793D01*
X146046717Y-107682431D01*
X146042209Y-107955962D01*
X146027558Y-108017979D01*
X145988338Y-108068203D01*
X145948261Y-108088905D01*
X145947163Y-108090000D01*
X145940000Y-108090000D01*
X145939941Y-108109575D01*
X145939941Y-108109578D01*
X145931915Y-110806151D01*
X145920489Y-110862932D01*
X145888275Y-110911066D01*
X145390024Y-111409317D01*
X145342000Y-111441485D01*
X145285349Y-111452956D01*
X143750436Y-111459998D01*
X143749752Y-111460000D01*
X143648378Y-111460000D01*
X143574058Y-111440142D01*
X143519549Y-111385860D01*
X143499379Y-111311623D01*
X143490626Y-109219623D01*
X143501789Y-109162412D01*
X143534046Y-109113862D01*
X143582461Y-109081402D01*
X143639625Y-109070000D01*
X144770442Y-109070000D01*
X144790000Y-109070000D01*
X144810000Y-104560000D01*
X144795283Y-104560000D01*
X144351915Y-104560000D01*
X144279519Y-104541230D01*
X144225363Y-104489649D01*
X144203092Y-104418253D01*
X143978848Y-99816753D01*
X143988023Y-99757544D01*
X144019778Y-99706737D01*
X144068980Y-99672546D01*
X144127671Y-99660500D01*
X148143776Y-99660500D01*
X148201386Y-99672088D01*
G37*
%TD.AperFunction*%
%TD*%
%TA.AperFunction,Conductor*%
%TO.N,Net-(D6-K)*%
G36*
X148588092Y-120305940D02*
G01*
X152281651Y-120338684D01*
X152355783Y-120359197D01*
X152409808Y-120413952D01*
X152429325Y-120488355D01*
X152420675Y-122391283D01*
X152400422Y-122465611D01*
X152345753Y-122519888D01*
X152271282Y-122539605D01*
X144895195Y-122520040D01*
X144895193Y-122520040D01*
X144880000Y-122520000D01*
X144880798Y-122535171D01*
X144880798Y-122535175D01*
X144881590Y-122550220D01*
X144872353Y-122610248D01*
X144839929Y-122661603D01*
X144789704Y-122695753D01*
X144730024Y-122707023D01*
X142877510Y-122672558D01*
X142806824Y-122653218D01*
X142753908Y-122602518D01*
X142731564Y-122532726D01*
X142645279Y-121128636D01*
X142653862Y-121068875D01*
X142685456Y-121017423D01*
X142734873Y-120982733D01*
X142793998Y-120970500D01*
X145184330Y-120970500D01*
X145193327Y-120970772D01*
X145252606Y-120974358D01*
X145311048Y-120963647D01*
X145319911Y-120962298D01*
X145378872Y-120955140D01*
X145387307Y-120951940D01*
X145390714Y-120951101D01*
X145407786Y-120946341D01*
X145411061Y-120945320D01*
X145419932Y-120943695D01*
X145455183Y-120927828D01*
X145518121Y-120914712D01*
X146790000Y-120930000D01*
X146790000Y-120440327D01*
X146801469Y-120383002D01*
X146834109Y-120334502D01*
X146882897Y-120302293D01*
X146940321Y-120291333D01*
X148588092Y-120305940D01*
G37*
%TD.AperFunction*%
%TD*%
%TA.AperFunction,Conductor*%
%TO.N,Net-(D7-A)*%
G36*
X164790160Y-120031420D02*
G01*
X164806559Y-120031808D01*
X164831219Y-120034455D01*
X164860000Y-120040000D01*
X168920416Y-120040000D01*
X168977570Y-120051398D01*
X169025981Y-120083847D01*
X169058241Y-120132384D01*
X169069415Y-120189583D01*
X169059583Y-122704154D01*
X169039506Y-122778271D01*
X168985188Y-122832549D01*
X168911056Y-122852570D01*
X165962757Y-122861900D01*
X165929687Y-122858291D01*
X165913766Y-122854721D01*
X165919005Y-122852102D01*
X165902293Y-122852149D01*
X162515915Y-122861688D01*
X162441968Y-122842284D01*
X162387378Y-122788762D01*
X162366516Y-122715213D01*
X162366329Y-122704154D01*
X162322680Y-120128212D01*
X162333616Y-120069611D01*
X162366652Y-120019983D01*
X162416500Y-119987279D01*
X162475175Y-119976735D01*
X164790160Y-120031420D01*
G37*
%TD.AperFunction*%
%TD*%
%TA.AperFunction,Conductor*%
%TO.N,Net-(D5-A)*%
G36*
X152456697Y-109812906D02*
G01*
X152505750Y-109844985D01*
X152538636Y-109893502D01*
X152550265Y-109950949D01*
X152559732Y-115328077D01*
X152548213Y-115385785D01*
X152515250Y-115434532D01*
X152465984Y-115466716D01*
X152408100Y-115477316D01*
X149879276Y-115432637D01*
X149822397Y-115420259D01*
X149774600Y-115387034D01*
X149743182Y-115338030D01*
X149732937Y-115280729D01*
X149835393Y-110074073D01*
X149847274Y-110018638D01*
X149879001Y-109971655D01*
X149970484Y-109880172D01*
X150017804Y-109848301D01*
X150073636Y-109836551D01*
X152399070Y-109802227D01*
X152456697Y-109812906D01*
G37*
%TD.AperFunction*%
%TD*%
%TA.AperFunction,Conductor*%
%TO.N,Net-(D2-K)*%
G36*
X156010580Y-119958006D02*
G01*
X156068024Y-119970347D01*
X156116231Y-120003935D01*
X156147705Y-120053549D01*
X156157553Y-120111472D01*
X156104596Y-121872275D01*
X156049938Y-123689708D01*
X156049779Y-123694979D01*
X156028365Y-123767571D01*
X155974049Y-123820278D01*
X155900846Y-123839500D01*
X135313024Y-123839500D01*
X135255821Y-123828082D01*
X135207385Y-123795578D01*
X135175140Y-123746970D01*
X135164026Y-123689708D01*
X135167554Y-123026386D01*
X135172094Y-122172778D01*
X135172230Y-122167200D01*
X135225884Y-120933170D01*
X135248035Y-120861246D01*
X135302511Y-120809322D01*
X135375412Y-120790645D01*
X136873806Y-120797395D01*
X137303780Y-120799332D01*
X137377996Y-120819517D01*
X137432259Y-120874024D01*
X137452109Y-120948330D01*
X137452109Y-123110000D01*
X142498424Y-123080905D01*
X142556373Y-123096009D01*
X142557609Y-123093016D01*
X142673420Y-123140797D01*
X142744106Y-123160137D01*
X142868107Y-123177971D01*
X144720621Y-123212436D01*
X144823825Y-123203744D01*
X144883505Y-123192474D01*
X144982772Y-123162931D01*
X145073935Y-123113776D01*
X145107187Y-123091166D01*
X145146723Y-123072102D01*
X145190095Y-123065386D01*
X149830180Y-123038633D01*
X149830703Y-123038633D01*
X152269941Y-123045103D01*
X152400661Y-123028268D01*
X152405370Y-123027021D01*
X152408613Y-123026386D01*
X152436399Y-123023607D01*
X153062109Y-123020000D01*
X153119243Y-120068050D01*
X153140484Y-119994216D01*
X153195688Y-119940778D01*
X153270174Y-119921948D01*
X156010580Y-119958006D01*
G37*
%TD.AperFunction*%
%TD*%
%TA.AperFunction,Conductor*%
%TO.N,Net-(D1-A)*%
G36*
X133584283Y-99378981D02*
G01*
X133657686Y-99398907D01*
X133711690Y-99452467D01*
X133732224Y-99525702D01*
X133767671Y-101847455D01*
X133756874Y-101905459D01*
X133724410Y-101954724D01*
X133675370Y-101987527D01*
X133617443Y-101998725D01*
X126737190Y-101941230D01*
X126663382Y-101920952D01*
X126609380Y-101866705D01*
X126589436Y-101792806D01*
X126580577Y-99480620D01*
X126591854Y-99423184D01*
X126624384Y-99374524D01*
X126673147Y-99342148D01*
X126730616Y-99331053D01*
X133584283Y-99378981D01*
G37*
%TD.AperFunction*%
%TD*%
%TA.AperFunction,Conductor*%
%TO.N,Net-(T1-AB)*%
G36*
X168639838Y-100337843D02*
G01*
X168711405Y-100357421D01*
X168764658Y-100409088D01*
X168786389Y-100480034D01*
X168892907Y-102814557D01*
X168883618Y-102873550D01*
X168851910Y-102924157D01*
X168802877Y-102958249D01*
X168744395Y-102970348D01*
X164431397Y-102979996D01*
X164428525Y-102979974D01*
X160925051Y-102920256D01*
X160925048Y-102920256D01*
X160910000Y-102920000D01*
X160910351Y-102935049D01*
X160910351Y-102935050D01*
X160952851Y-104756504D01*
X160980000Y-105920000D01*
X164813405Y-108738390D01*
X164856169Y-108787488D01*
X164873913Y-108850135D01*
X164991531Y-110958220D01*
X164983134Y-111016486D01*
X164952826Y-111066954D01*
X164905337Y-111101743D01*
X164848080Y-111115425D01*
X164721781Y-111119936D01*
X164716818Y-111120031D01*
X160617685Y-111129791D01*
X160565926Y-111120643D01*
X160520564Y-111094093D01*
X160487245Y-111053445D01*
X159067562Y-108511445D01*
X159048742Y-108444004D01*
X158920120Y-104763455D01*
X158920041Y-104756526D01*
X158968304Y-100692799D01*
X158988086Y-100620364D01*
X159040687Y-100566773D01*
X159112742Y-100545641D01*
X166826636Y-100310102D01*
X166833398Y-100310052D01*
X168639838Y-100337843D01*
G37*
%TD.AperFunction*%
%TD*%
M02*
