%TF.GenerationSoftware,KiCad,Pcbnew,(7.0.0)*%
%TF.CreationDate,2023-11-14T21:29:08+01:00*%
%TF.ProjectId,reversepcb1,72657665-7273-4657-9063-62312e6b6963,rev?*%
%TF.SameCoordinates,Original*%
%TF.FileFunction,Copper,L1,Top*%
%TF.FilePolarity,Positive*%
%FSLAX46Y46*%
G04 Gerber Fmt 4.6, Leading zero omitted, Abs format (unit mm)*
G04 Created by KiCad (PCBNEW (7.0.0)) date 2023-11-14 21:29:08*
%MOMM*%
%LPD*%
G01*
G04 APERTURE LIST*
%TA.AperFunction,ComponentPad*%
%ADD10R,1.800000X1.800000*%
%TD*%
%TA.AperFunction,ComponentPad*%
%ADD11O,1.800000X1.800000*%
%TD*%
%TA.AperFunction,ComponentPad*%
%ADD12C,1.200000*%
%TD*%
%TA.AperFunction,ComponentPad*%
%ADD13C,1.400000*%
%TD*%
%TA.AperFunction,ComponentPad*%
%ADD14O,1.400000X1.400000*%
%TD*%
%TA.AperFunction,ComponentPad*%
%ADD15R,1.600000X1.600000*%
%TD*%
%TA.AperFunction,ComponentPad*%
%ADD16O,1.600000X1.600000*%
%TD*%
%TA.AperFunction,ComponentPad*%
%ADD17R,1.050000X1.300000*%
%TD*%
%TA.AperFunction,ComponentPad*%
%ADD18O,1.050000X1.300000*%
%TD*%
%TA.AperFunction,ComponentPad*%
%ADD19C,1.524000*%
%TD*%
%TA.AperFunction,ViaPad*%
%ADD20C,1.600000*%
%TD*%
G04 APERTURE END LIST*
D10*
%TO.P,D1,1,K*%
%TO.N,Net-(D7-K)*%
X167619999Y-113919999D03*
D11*
%TO.P,D1,2,A*%
%TO.N,Net-(D7-A)*%
X167619999Y-121539999D03*
%TD*%
D12*
%TO.P,EC2,1*%
%TO.N,Net-(D5-A)*%
X146950000Y-107000000D03*
%TO.P,EC2,2*%
%TO.N,Net-(Dzd1-A)*%
X145450000Y-107000000D03*
%TD*%
D13*
%TO.P,R3,1*%
%TO.N,Net-(Q1-Pad3)*%
X144850000Y-118150000D03*
D14*
%TO.P,R3,2*%
%TO.N,Net-(Dzd1-A)*%
X144849999Y-110529999D03*
%TD*%
D15*
%TO.P,D3,1,K*%
%TO.N,Net-(Dzd1-K)*%
X137549999Y-102999999D03*
D16*
%TO.P,D3,2,A*%
%TO.N,Net-(Dzd1-A)*%
X145169999Y-102999999D03*
%TD*%
D13*
%TO.P,R4,1*%
%TO.N,Net-(Dzd1-K)*%
X137450000Y-100350000D03*
D14*
%TO.P,R4,2*%
%TO.N,Net-(Dzd1-A)*%
X145069999Y-100349999D03*
%TD*%
D13*
%TO.P,R1,1*%
%TO.N,Net-(D7-K)*%
X167810000Y-109090000D03*
D14*
%TO.P,R1,2*%
%TO.N,Net-(T1-AB)*%
X167809999Y-101469999D03*
%TD*%
D10*
%TO.P,D1,1,K*%
%TO.N,Net-(D1-K)*%
X128279999Y-108359999D03*
D11*
%TO.P,D1,2,A*%
%TO.N,Net-(D1-A)*%
X128279999Y-100739999D03*
%TD*%
D12*
%TO.P,EC1,1*%
%TO.N,Net-(D7-K)*%
X162080000Y-104350000D03*
%TO.P,EC1,2*%
%TO.N,Net-(T1-AB)*%
X160580000Y-104350000D03*
%TD*%
D10*
%TO.P,Q2,1,1*%
%TO.N,Net-(D6-K)*%
X136899999Y-118244999D03*
D11*
%TO.P,Q2,2,2*%
%TO.N,Net-(T1-SB)*%
X139439999Y-118244999D03*
%TO.P,Q2,3,3*%
%TO.N,Net-(Q1-Pad3)*%
X141979999Y-118244999D03*
%TD*%
D17*
%TO.P,Q1,1,E*%
%TO.N,Net-(D1-A)*%
X140339999Y-106229999D03*
D18*
%TO.P,Q1,2,C*%
%TO.N,Net-(D6-K)*%
X141609999Y-106229999D03*
%TO.P,Q1,3,B*%
%TO.N,Net-(Dzd1-K)*%
X142879999Y-106229999D03*
%TD*%
D10*
%TO.P,D2,1,K*%
%TO.N,Net-(D2-K)*%
X128249999Y-121969999D03*
D11*
%TO.P,D2,2,A*%
%TO.N,Net-(D1-K)*%
X128249999Y-114349999D03*
%TD*%
D12*
%TO.P,EC5,1*%
%TO.N,Net-(D2-K)*%
X139300000Y-113590000D03*
%TO.P,EC5,2*%
%TO.N,Net-(D1-A)*%
X139300000Y-112090000D03*
%TD*%
D13*
%TO.P,R5,1*%
%TO.N,Net-(D6-K)*%
X147940000Y-121280000D03*
D14*
%TO.P,R5,2*%
%TO.N,Net-(C2-Pad1)*%
X147939999Y-113659999D03*
%TD*%
D10*
%TO.P,D4,1,K*%
%TO.N,Net-(D2-K)*%
X131959999Y-121949999D03*
D11*
%TO.P,D4,2,A*%
%TO.N,Net-(D3-K)*%
X131959999Y-114329999D03*
%TD*%
D10*
%TO.P,D2,1,K*%
%TO.N,Net-(D5-K)*%
X151089999Y-103399999D03*
D11*
%TO.P,D2,2,A*%
%TO.N,Net-(D5-A)*%
X151089999Y-111019999D03*
%TD*%
D15*
%TO.P,ZD4,1,K*%
%TO.N,Net-(D6-K)*%
X151129999Y-121319999D03*
D16*
%TO.P,ZD4,2,A*%
%TO.N,Net-(D5-A)*%
X151129999Y-113699999D03*
%TD*%
D10*
%TO.P,D3,1,K*%
%TO.N,Net-(D3-K)*%
X132069999Y-108369999D03*
D11*
%TO.P,D3,2,A*%
%TO.N,Net-(D1-A)*%
X132069999Y-100749999D03*
%TD*%
D13*
%TO.P,R2,1*%
%TO.N,Net-(Dzd1-A)*%
X147300000Y-100430000D03*
D14*
%TO.P,R2,2*%
%TO.N,Net-(D1-A)*%
X154919999Y-100429999D03*
%TD*%
D13*
%TO.P,R6,1*%
%TO.N,Net-(D2-K)*%
X136160000Y-121900000D03*
D14*
%TO.P,R6,2*%
%TO.N,Net-(D6-K)*%
X143779999Y-121899999D03*
%TD*%
D13*
%TO.P,C1,1*%
%TO.N,Net-(C2-Pad1)*%
X154900000Y-106680000D03*
%TO.P,C1,2*%
%TO.N,Net-(D5-K)*%
X154900000Y-104180000D03*
%TD*%
D19*
%TO.P,T1,1,AA*%
%TO.N,Net-(D7-A)*%
X163690000Y-121060000D03*
%TO.P,T1,2,AB*%
%TO.N,Net-(T1-AB)*%
X163690000Y-110060000D03*
%TO.P,T1,3,SA*%
%TO.N,Net-(D2-K)*%
X154690000Y-121060000D03*
%TO.P,T1,4,SB*%
%TO.N,Net-(T1-SB)*%
X154690000Y-118060000D03*
%TO.P,T1,5,SC*%
%TO.N,Net-(D1-A)*%
X154690000Y-113060000D03*
%TO.P,T1,6,SD*%
%TO.N,Net-(D5-K)*%
X154690000Y-110060000D03*
%TD*%
D20*
%TO.N,Net-(D7-K)*%
X167690000Y-111410000D03*
%TO.N,Net-(D1-K)*%
X128260000Y-111490000D03*
%TO.N,Net-(D3-K)*%
X132020000Y-111450000D03*
%TD*%
M02*
