%TF.GenerationSoftware,KiCad,Pcbnew,(7.0.0)*%
%TF.CreationDate,2023-11-14T21:29:09+01:00*%
%TF.ProjectId,reversepcb1,72657665-7273-4657-9063-62312e6b6963,rev?*%
%TF.SameCoordinates,Original*%
%TF.FileFunction,Soldermask,Bot*%
%TF.FilePolarity,Negative*%
%FSLAX46Y46*%
G04 Gerber Fmt 4.6, Leading zero omitted, Abs format (unit mm)*
G04 Created by KiCad (PCBNEW (7.0.0)) date 2023-11-14 21:29:09*
%MOMM*%
%LPD*%
G01*
G04 APERTURE LIST*
%ADD10R,1.800000X1.800000*%
%ADD11O,1.800000X1.800000*%
%ADD12C,1.200000*%
%ADD13C,1.400000*%
%ADD14O,1.400000X1.400000*%
%ADD15R,1.600000X1.600000*%
%ADD16O,1.600000X1.600000*%
%ADD17R,1.050000X1.300000*%
%ADD18O,1.050000X1.300000*%
%ADD19C,1.524000*%
G04 APERTURE END LIST*
D10*
%TO.C,D1*%
X167619999Y-113919999D03*
D11*
X167619999Y-121539999D03*
%TD*%
D12*
%TO.C,EC2*%
X146950000Y-107000000D03*
X145450000Y-107000000D03*
%TD*%
D13*
%TO.C,R3*%
X144850000Y-118150000D03*
D14*
X144849999Y-110529999D03*
%TD*%
D15*
%TO.C,D3*%
X137549999Y-102999999D03*
D16*
X145169999Y-102999999D03*
%TD*%
D13*
%TO.C,R4*%
X137450000Y-100350000D03*
D14*
X145069999Y-100349999D03*
%TD*%
D13*
%TO.C,R1*%
X167810000Y-109090000D03*
D14*
X167809999Y-101469999D03*
%TD*%
D10*
%TO.C,D1*%
X128279999Y-108359999D03*
D11*
X128279999Y-100739999D03*
%TD*%
D12*
%TO.C,EC1*%
X162080000Y-104350000D03*
X160580000Y-104350000D03*
%TD*%
D10*
%TO.C,Q2*%
X136899999Y-118244999D03*
D11*
X139439999Y-118244999D03*
X141979999Y-118244999D03*
%TD*%
D17*
%TO.C,Q1*%
X140339999Y-106229999D03*
D18*
X141609999Y-106229999D03*
X142879999Y-106229999D03*
%TD*%
D10*
%TO.C,D2*%
X128249999Y-121969999D03*
D11*
X128249999Y-114349999D03*
%TD*%
D12*
%TO.C,EC5*%
X139300000Y-113590000D03*
X139300000Y-112090000D03*
%TD*%
D13*
%TO.C,R5*%
X147940000Y-121280000D03*
D14*
X147939999Y-113659999D03*
%TD*%
D10*
%TO.C,D4*%
X131959999Y-121949999D03*
D11*
X131959999Y-114329999D03*
%TD*%
D10*
%TO.C,D2*%
X151089999Y-103399999D03*
D11*
X151089999Y-111019999D03*
%TD*%
D15*
%TO.C,ZD4*%
X151129999Y-121319999D03*
D16*
X151129999Y-113699999D03*
%TD*%
D10*
%TO.C,D3*%
X132069999Y-108369999D03*
D11*
X132069999Y-100749999D03*
%TD*%
D13*
%TO.C,R2*%
X147300000Y-100430000D03*
D14*
X154919999Y-100429999D03*
%TD*%
D13*
%TO.C,R6*%
X136160000Y-121900000D03*
D14*
X143779999Y-121899999D03*
%TD*%
D13*
%TO.C,C1*%
X154900000Y-106680000D03*
X154900000Y-104180000D03*
%TD*%
D19*
%TO.C,T1*%
X163690000Y-121060000D03*
X163690000Y-110060000D03*
X154690000Y-121060000D03*
X154690000Y-118060000D03*
X154690000Y-113060000D03*
X154690000Y-110060000D03*
%TD*%
M02*
