M48
; DRILL file {KiCad (7.0.0)} date Tue Nov 14 21:28:45 2023
; FORMAT={3:3/ absolute / metric / suppress leading zeros}
; #@! TF.CreationDate,2023-11-14T21:28:45+01:00
; #@! TF.GenerationSoftware,Kicad,Pcbnew,(7.0.0)
; #@! TF.FileFunction,MixedPlating,1,2
FMAT,2
METRIC,TZ
; #@! TA.AperFunction,Plated,PTH,ComponentDrill
T1C0.600
; #@! TA.AperFunction,Plated,PTH,ComponentDrill
T2C0.700
; #@! TA.AperFunction,Plated,PTH,ComponentDrill
T3C0.750
; #@! TA.AperFunction,Plated,PTH,ComponentDrill
T4C0.762
; #@! TA.AperFunction,Plated,PTH,ViaDrill
T5C0.800
; #@! TA.AperFunction,Plated,PTH,ComponentDrill
T6C0.800
; #@! TA.AperFunction,Plated,PTH,ComponentDrill
T7C0.900
; #@! TA.AperFunction,Plated,PTH,ComponentDrill
T8C1.000
%
G90
G05
T1
X139300Y-112090
X139300Y-113590
X145450Y-107000
X146950Y-107000
X160580Y-104350
X162080Y-104350
T2
X136160Y-121900
X137450Y-100350
X143780Y-121900
X144850Y-110530
X144850Y-118150
X145070Y-100350
X147300Y-100430
X147940Y-113660
X147940Y-121280
X154900Y-104180
X154900Y-106680
X154920Y-100430
X167810Y-101470
X167810Y-109090
T3
X140340Y-106230
X141610Y-106230
X142880Y-106230
T4
X154690Y-110060
X154690Y-113060
X154690Y-118060
X154690Y-121060
X163690Y-110060
X163690Y-121060
T5
X128260Y-111490
X132020Y-111450
X167690Y-111410
T6
X137550Y-103000
X145170Y-103000
X151130Y-113700
X151130Y-121320
T7
X128250Y-114350
X128250Y-121970
X128280Y-100740
X128280Y-108360
X131960Y-114330
X131960Y-121950
X132070Y-100750
X132070Y-108370
X151090Y-103400
X151090Y-111020
X167620Y-113920
X167620Y-121540
T8
X136900Y-118245
X139440Y-118245
X141980Y-118245
T0
M30
