%TF.GenerationSoftware,KiCad,Pcbnew,(7.0.0)*%
%TF.CreationDate,2023-11-14T21:29:08+01:00*%
%TF.ProjectId,reversepcb1,72657665-7273-4657-9063-62312e6b6963,rev?*%
%TF.SameCoordinates,Original*%
%TF.FileFunction,Legend,Top*%
%TF.FilePolarity,Positive*%
%FSLAX46Y46*%
G04 Gerber Fmt 4.6, Leading zero omitted, Abs format (unit mm)*
G04 Created by KiCad (PCBNEW (7.0.0)) date 2023-11-14 21:29:08*
%MOMM*%
%LPD*%
G01*
G04 APERTURE LIST*
%ADD10C,0.100000*%
%ADD11C,0.120000*%
G04 APERTURE END LIST*
D10*
X133669571Y-122047143D02*
X134269571Y-122047143D01*
X134269571Y-122047143D02*
X134269571Y-122190000D01*
X134269571Y-122190000D02*
X134241000Y-122275714D01*
X134241000Y-122275714D02*
X134183857Y-122332857D01*
X134183857Y-122332857D02*
X134126714Y-122361428D01*
X134126714Y-122361428D02*
X134012428Y-122390000D01*
X134012428Y-122390000D02*
X133926714Y-122390000D01*
X133926714Y-122390000D02*
X133812428Y-122361428D01*
X133812428Y-122361428D02*
X133755285Y-122332857D01*
X133755285Y-122332857D02*
X133698142Y-122275714D01*
X133698142Y-122275714D02*
X133669571Y-122190000D01*
X133669571Y-122190000D02*
X133669571Y-122047143D01*
X134269571Y-122932857D02*
X134269571Y-122647143D01*
X134269571Y-122647143D02*
X133983857Y-122618571D01*
X133983857Y-122618571D02*
X134012428Y-122647143D01*
X134012428Y-122647143D02*
X134041000Y-122704286D01*
X134041000Y-122704286D02*
X134041000Y-122847143D01*
X134041000Y-122847143D02*
X134012428Y-122904286D01*
X134012428Y-122904286D02*
X133983857Y-122932857D01*
X133983857Y-122932857D02*
X133926714Y-122961428D01*
X133926714Y-122961428D02*
X133783857Y-122961428D01*
X133783857Y-122961428D02*
X133726714Y-122932857D01*
X133726714Y-122932857D02*
X133698142Y-122904286D01*
X133698142Y-122904286D02*
X133669571Y-122847143D01*
X133669571Y-122847143D02*
X133669571Y-122704286D01*
X133669571Y-122704286D02*
X133698142Y-122647143D01*
X133698142Y-122647143D02*
X133726714Y-122618571D01*
X129509571Y-122107143D02*
X130109571Y-122107143D01*
X130109571Y-122107143D02*
X130109571Y-122250000D01*
X130109571Y-122250000D02*
X130081000Y-122335714D01*
X130081000Y-122335714D02*
X130023857Y-122392857D01*
X130023857Y-122392857D02*
X129966714Y-122421428D01*
X129966714Y-122421428D02*
X129852428Y-122450000D01*
X129852428Y-122450000D02*
X129766714Y-122450000D01*
X129766714Y-122450000D02*
X129652428Y-122421428D01*
X129652428Y-122421428D02*
X129595285Y-122392857D01*
X129595285Y-122392857D02*
X129538142Y-122335714D01*
X129538142Y-122335714D02*
X129509571Y-122250000D01*
X129509571Y-122250000D02*
X129509571Y-122107143D01*
X130109571Y-122650000D02*
X130109571Y-123050000D01*
X130109571Y-123050000D02*
X129509571Y-122792857D01*
X125969571Y-99577143D02*
X126569571Y-99577143D01*
X126569571Y-99577143D02*
X126569571Y-99720000D01*
X126569571Y-99720000D02*
X126541000Y-99805714D01*
X126541000Y-99805714D02*
X126483857Y-99862857D01*
X126483857Y-99862857D02*
X126426714Y-99891428D01*
X126426714Y-99891428D02*
X126312428Y-99920000D01*
X126312428Y-99920000D02*
X126226714Y-99920000D01*
X126226714Y-99920000D02*
X126112428Y-99891428D01*
X126112428Y-99891428D02*
X126055285Y-99862857D01*
X126055285Y-99862857D02*
X125998142Y-99805714D01*
X125998142Y-99805714D02*
X125969571Y-99720000D01*
X125969571Y-99720000D02*
X125969571Y-99577143D01*
X126369571Y-100434286D02*
X125969571Y-100434286D01*
X126598142Y-100291428D02*
X126169571Y-100148571D01*
X126169571Y-100148571D02*
X126169571Y-100520000D01*
X133799571Y-99577143D02*
X134399571Y-99577143D01*
X134399571Y-99577143D02*
X134399571Y-99720000D01*
X134399571Y-99720000D02*
X134371000Y-99805714D01*
X134371000Y-99805714D02*
X134313857Y-99862857D01*
X134313857Y-99862857D02*
X134256714Y-99891428D01*
X134256714Y-99891428D02*
X134142428Y-99920000D01*
X134142428Y-99920000D02*
X134056714Y-99920000D01*
X134056714Y-99920000D02*
X133942428Y-99891428D01*
X133942428Y-99891428D02*
X133885285Y-99862857D01*
X133885285Y-99862857D02*
X133828142Y-99805714D01*
X133828142Y-99805714D02*
X133799571Y-99720000D01*
X133799571Y-99720000D02*
X133799571Y-99577143D01*
X134399571Y-100434286D02*
X134399571Y-100320000D01*
X134399571Y-100320000D02*
X134371000Y-100262857D01*
X134371000Y-100262857D02*
X134342428Y-100234286D01*
X134342428Y-100234286D02*
X134256714Y-100177143D01*
X134256714Y-100177143D02*
X134142428Y-100148571D01*
X134142428Y-100148571D02*
X133913857Y-100148571D01*
X133913857Y-100148571D02*
X133856714Y-100177143D01*
X133856714Y-100177143D02*
X133828142Y-100205714D01*
X133828142Y-100205714D02*
X133799571Y-100262857D01*
X133799571Y-100262857D02*
X133799571Y-100377143D01*
X133799571Y-100377143D02*
X133828142Y-100434286D01*
X133828142Y-100434286D02*
X133856714Y-100462857D01*
X133856714Y-100462857D02*
X133913857Y-100491428D01*
X133913857Y-100491428D02*
X134056714Y-100491428D01*
X134056714Y-100491428D02*
X134113857Y-100462857D01*
X134113857Y-100462857D02*
X134142428Y-100434286D01*
X134142428Y-100434286D02*
X134171000Y-100377143D01*
X134171000Y-100377143D02*
X134171000Y-100262857D01*
X134171000Y-100262857D02*
X134142428Y-100205714D01*
X134142428Y-100205714D02*
X134113857Y-100177143D01*
X134113857Y-100177143D02*
X134056714Y-100148571D01*
%TO.C,D1*%
X168497143Y-112550428D02*
X168497143Y-111950428D01*
X168497143Y-111950428D02*
X168640000Y-111950428D01*
X168640000Y-111950428D02*
X168725714Y-111979000D01*
X168725714Y-111979000D02*
X168782857Y-112036142D01*
X168782857Y-112036142D02*
X168811428Y-112093285D01*
X168811428Y-112093285D02*
X168840000Y-112207571D01*
X168840000Y-112207571D02*
X168840000Y-112293285D01*
X168840000Y-112293285D02*
X168811428Y-112407571D01*
X168811428Y-112407571D02*
X168782857Y-112464714D01*
X168782857Y-112464714D02*
X168725714Y-112521857D01*
X168725714Y-112521857D02*
X168640000Y-112550428D01*
X168640000Y-112550428D02*
X168497143Y-112550428D01*
X169411428Y-112550428D02*
X169068571Y-112550428D01*
X169240000Y-112550428D02*
X169240000Y-111950428D01*
X169240000Y-111950428D02*
X169182857Y-112036142D01*
X169182857Y-112036142D02*
X169125714Y-112093285D01*
X169125714Y-112093285D02*
X169068571Y-112121857D01*
%TO.C,EC2*%
X146996142Y-110894285D02*
X146996142Y-110694285D01*
X147310428Y-110608571D02*
X147310428Y-110894285D01*
X147310428Y-110894285D02*
X146710428Y-110894285D01*
X146710428Y-110894285D02*
X146710428Y-110608571D01*
X147253285Y-110008571D02*
X147281857Y-110037143D01*
X147281857Y-110037143D02*
X147310428Y-110122857D01*
X147310428Y-110122857D02*
X147310428Y-110180000D01*
X147310428Y-110180000D02*
X147281857Y-110265714D01*
X147281857Y-110265714D02*
X147224714Y-110322857D01*
X147224714Y-110322857D02*
X147167571Y-110351428D01*
X147167571Y-110351428D02*
X147053285Y-110380000D01*
X147053285Y-110380000D02*
X146967571Y-110380000D01*
X146967571Y-110380000D02*
X146853285Y-110351428D01*
X146853285Y-110351428D02*
X146796142Y-110322857D01*
X146796142Y-110322857D02*
X146739000Y-110265714D01*
X146739000Y-110265714D02*
X146710428Y-110180000D01*
X146710428Y-110180000D02*
X146710428Y-110122857D01*
X146710428Y-110122857D02*
X146739000Y-110037143D01*
X146739000Y-110037143D02*
X146767571Y-110008571D01*
X146767571Y-109780000D02*
X146739000Y-109751428D01*
X146739000Y-109751428D02*
X146710428Y-109694286D01*
X146710428Y-109694286D02*
X146710428Y-109551428D01*
X146710428Y-109551428D02*
X146739000Y-109494286D01*
X146739000Y-109494286D02*
X146767571Y-109465714D01*
X146767571Y-109465714D02*
X146824714Y-109437143D01*
X146824714Y-109437143D02*
X146881857Y-109437143D01*
X146881857Y-109437143D02*
X146967571Y-109465714D01*
X146967571Y-109465714D02*
X147310428Y-109808571D01*
X147310428Y-109808571D02*
X147310428Y-109437143D01*
%TO.C,R3*%
X146670428Y-114739999D02*
X146384714Y-114939999D01*
X146670428Y-115082856D02*
X146070428Y-115082856D01*
X146070428Y-115082856D02*
X146070428Y-114854285D01*
X146070428Y-114854285D02*
X146099000Y-114797142D01*
X146099000Y-114797142D02*
X146127571Y-114768571D01*
X146127571Y-114768571D02*
X146184714Y-114739999D01*
X146184714Y-114739999D02*
X146270428Y-114739999D01*
X146270428Y-114739999D02*
X146327571Y-114768571D01*
X146327571Y-114768571D02*
X146356142Y-114797142D01*
X146356142Y-114797142D02*
X146384714Y-114854285D01*
X146384714Y-114854285D02*
X146384714Y-115082856D01*
X146070428Y-114539999D02*
X146070428Y-114168571D01*
X146070428Y-114168571D02*
X146299000Y-114368571D01*
X146299000Y-114368571D02*
X146299000Y-114282856D01*
X146299000Y-114282856D02*
X146327571Y-114225714D01*
X146327571Y-114225714D02*
X146356142Y-114197142D01*
X146356142Y-114197142D02*
X146413285Y-114168571D01*
X146413285Y-114168571D02*
X146556142Y-114168571D01*
X146556142Y-114168571D02*
X146613285Y-114197142D01*
X146613285Y-114197142D02*
X146641857Y-114225714D01*
X146641857Y-114225714D02*
X146670428Y-114282856D01*
X146670428Y-114282856D02*
X146670428Y-114454285D01*
X146670428Y-114454285D02*
X146641857Y-114511428D01*
X146641857Y-114511428D02*
X146613285Y-114539999D01*
%TO.C,D3*%
X147150428Y-103332856D02*
X146550428Y-103332856D01*
X146550428Y-103332856D02*
X146550428Y-103189999D01*
X146550428Y-103189999D02*
X146579000Y-103104285D01*
X146579000Y-103104285D02*
X146636142Y-103047142D01*
X146636142Y-103047142D02*
X146693285Y-103018571D01*
X146693285Y-103018571D02*
X146807571Y-102989999D01*
X146807571Y-102989999D02*
X146893285Y-102989999D01*
X146893285Y-102989999D02*
X147007571Y-103018571D01*
X147007571Y-103018571D02*
X147064714Y-103047142D01*
X147064714Y-103047142D02*
X147121857Y-103104285D01*
X147121857Y-103104285D02*
X147150428Y-103189999D01*
X147150428Y-103189999D02*
X147150428Y-103332856D01*
X146550428Y-102789999D02*
X146550428Y-102418571D01*
X146550428Y-102418571D02*
X146779000Y-102618571D01*
X146779000Y-102618571D02*
X146779000Y-102532856D01*
X146779000Y-102532856D02*
X146807571Y-102475714D01*
X146807571Y-102475714D02*
X146836142Y-102447142D01*
X146836142Y-102447142D02*
X146893285Y-102418571D01*
X146893285Y-102418571D02*
X147036142Y-102418571D01*
X147036142Y-102418571D02*
X147093285Y-102447142D01*
X147093285Y-102447142D02*
X147121857Y-102475714D01*
X147121857Y-102475714D02*
X147150428Y-102532856D01*
X147150428Y-102532856D02*
X147150428Y-102704285D01*
X147150428Y-102704285D02*
X147121857Y-102761428D01*
X147121857Y-102761428D02*
X147093285Y-102789999D01*
%TO.C,R4*%
X136240000Y-99480428D02*
X136040000Y-99194714D01*
X135897143Y-99480428D02*
X135897143Y-98880428D01*
X135897143Y-98880428D02*
X136125714Y-98880428D01*
X136125714Y-98880428D02*
X136182857Y-98909000D01*
X136182857Y-98909000D02*
X136211428Y-98937571D01*
X136211428Y-98937571D02*
X136240000Y-98994714D01*
X136240000Y-98994714D02*
X136240000Y-99080428D01*
X136240000Y-99080428D02*
X136211428Y-99137571D01*
X136211428Y-99137571D02*
X136182857Y-99166142D01*
X136182857Y-99166142D02*
X136125714Y-99194714D01*
X136125714Y-99194714D02*
X135897143Y-99194714D01*
X136754286Y-99080428D02*
X136754286Y-99480428D01*
X136611428Y-98851857D02*
X136468571Y-99280428D01*
X136468571Y-99280428D02*
X136840000Y-99280428D01*
%TO.C,R1*%
X166080000Y-102330428D02*
X165880000Y-102044714D01*
X165737143Y-102330428D02*
X165737143Y-101730428D01*
X165737143Y-101730428D02*
X165965714Y-101730428D01*
X165965714Y-101730428D02*
X166022857Y-101759000D01*
X166022857Y-101759000D02*
X166051428Y-101787571D01*
X166051428Y-101787571D02*
X166080000Y-101844714D01*
X166080000Y-101844714D02*
X166080000Y-101930428D01*
X166080000Y-101930428D02*
X166051428Y-101987571D01*
X166051428Y-101987571D02*
X166022857Y-102016142D01*
X166022857Y-102016142D02*
X165965714Y-102044714D01*
X165965714Y-102044714D02*
X165737143Y-102044714D01*
X166651428Y-102330428D02*
X166308571Y-102330428D01*
X166480000Y-102330428D02*
X166480000Y-101730428D01*
X166480000Y-101730428D02*
X166422857Y-101816142D01*
X166422857Y-101816142D02*
X166365714Y-101873285D01*
X166365714Y-101873285D02*
X166308571Y-101901857D01*
%TO.C,EC1*%
X163496142Y-102674285D02*
X163496142Y-102474285D01*
X163810428Y-102388571D02*
X163810428Y-102674285D01*
X163810428Y-102674285D02*
X163210428Y-102674285D01*
X163210428Y-102674285D02*
X163210428Y-102388571D01*
X163753285Y-101788571D02*
X163781857Y-101817143D01*
X163781857Y-101817143D02*
X163810428Y-101902857D01*
X163810428Y-101902857D02*
X163810428Y-101960000D01*
X163810428Y-101960000D02*
X163781857Y-102045714D01*
X163781857Y-102045714D02*
X163724714Y-102102857D01*
X163724714Y-102102857D02*
X163667571Y-102131428D01*
X163667571Y-102131428D02*
X163553285Y-102160000D01*
X163553285Y-102160000D02*
X163467571Y-102160000D01*
X163467571Y-102160000D02*
X163353285Y-102131428D01*
X163353285Y-102131428D02*
X163296142Y-102102857D01*
X163296142Y-102102857D02*
X163239000Y-102045714D01*
X163239000Y-102045714D02*
X163210428Y-101960000D01*
X163210428Y-101960000D02*
X163210428Y-101902857D01*
X163210428Y-101902857D02*
X163239000Y-101817143D01*
X163239000Y-101817143D02*
X163267571Y-101788571D01*
X163810428Y-101217143D02*
X163810428Y-101560000D01*
X163810428Y-101388571D02*
X163210428Y-101388571D01*
X163210428Y-101388571D02*
X163296142Y-101445714D01*
X163296142Y-101445714D02*
X163353285Y-101502857D01*
X163353285Y-101502857D02*
X163381857Y-101560000D01*
%TO.C,Q2*%
X135512857Y-115627571D02*
X135455714Y-115599000D01*
X135455714Y-115599000D02*
X135398571Y-115541857D01*
X135398571Y-115541857D02*
X135312857Y-115456142D01*
X135312857Y-115456142D02*
X135255714Y-115427571D01*
X135255714Y-115427571D02*
X135198571Y-115427571D01*
X135227142Y-115570428D02*
X135170000Y-115541857D01*
X135170000Y-115541857D02*
X135112857Y-115484714D01*
X135112857Y-115484714D02*
X135084285Y-115370428D01*
X135084285Y-115370428D02*
X135084285Y-115170428D01*
X135084285Y-115170428D02*
X135112857Y-115056142D01*
X135112857Y-115056142D02*
X135170000Y-114999000D01*
X135170000Y-114999000D02*
X135227142Y-114970428D01*
X135227142Y-114970428D02*
X135341428Y-114970428D01*
X135341428Y-114970428D02*
X135398571Y-114999000D01*
X135398571Y-114999000D02*
X135455714Y-115056142D01*
X135455714Y-115056142D02*
X135484285Y-115170428D01*
X135484285Y-115170428D02*
X135484285Y-115370428D01*
X135484285Y-115370428D02*
X135455714Y-115484714D01*
X135455714Y-115484714D02*
X135398571Y-115541857D01*
X135398571Y-115541857D02*
X135341428Y-115570428D01*
X135341428Y-115570428D02*
X135227142Y-115570428D01*
X135712856Y-115027571D02*
X135741428Y-114999000D01*
X135741428Y-114999000D02*
X135798571Y-114970428D01*
X135798571Y-114970428D02*
X135941428Y-114970428D01*
X135941428Y-114970428D02*
X135998571Y-114999000D01*
X135998571Y-114999000D02*
X136027142Y-115027571D01*
X136027142Y-115027571D02*
X136055713Y-115084714D01*
X136055713Y-115084714D02*
X136055713Y-115141857D01*
X136055713Y-115141857D02*
X136027142Y-115227571D01*
X136027142Y-115227571D02*
X135684285Y-115570428D01*
X135684285Y-115570428D02*
X136055713Y-115570428D01*
%TO.C,Q1*%
X138482857Y-107197571D02*
X138425714Y-107169000D01*
X138425714Y-107169000D02*
X138368571Y-107111857D01*
X138368571Y-107111857D02*
X138282857Y-107026142D01*
X138282857Y-107026142D02*
X138225714Y-106997571D01*
X138225714Y-106997571D02*
X138168571Y-106997571D01*
X138197142Y-107140428D02*
X138140000Y-107111857D01*
X138140000Y-107111857D02*
X138082857Y-107054714D01*
X138082857Y-107054714D02*
X138054285Y-106940428D01*
X138054285Y-106940428D02*
X138054285Y-106740428D01*
X138054285Y-106740428D02*
X138082857Y-106626142D01*
X138082857Y-106626142D02*
X138140000Y-106569000D01*
X138140000Y-106569000D02*
X138197142Y-106540428D01*
X138197142Y-106540428D02*
X138311428Y-106540428D01*
X138311428Y-106540428D02*
X138368571Y-106569000D01*
X138368571Y-106569000D02*
X138425714Y-106626142D01*
X138425714Y-106626142D02*
X138454285Y-106740428D01*
X138454285Y-106740428D02*
X138454285Y-106940428D01*
X138454285Y-106940428D02*
X138425714Y-107054714D01*
X138425714Y-107054714D02*
X138368571Y-107111857D01*
X138368571Y-107111857D02*
X138311428Y-107140428D01*
X138311428Y-107140428D02*
X138197142Y-107140428D01*
X139025713Y-107140428D02*
X138682856Y-107140428D01*
X138854285Y-107140428D02*
X138854285Y-106540428D01*
X138854285Y-106540428D02*
X138797142Y-106626142D01*
X138797142Y-106626142D02*
X138739999Y-106683285D01*
X138739999Y-106683285D02*
X138682856Y-106711857D01*
%TO.C,EC5*%
X136406142Y-113384285D02*
X136406142Y-113184285D01*
X136720428Y-113098571D02*
X136720428Y-113384285D01*
X136720428Y-113384285D02*
X136120428Y-113384285D01*
X136120428Y-113384285D02*
X136120428Y-113098571D01*
X136663285Y-112498571D02*
X136691857Y-112527143D01*
X136691857Y-112527143D02*
X136720428Y-112612857D01*
X136720428Y-112612857D02*
X136720428Y-112670000D01*
X136720428Y-112670000D02*
X136691857Y-112755714D01*
X136691857Y-112755714D02*
X136634714Y-112812857D01*
X136634714Y-112812857D02*
X136577571Y-112841428D01*
X136577571Y-112841428D02*
X136463285Y-112870000D01*
X136463285Y-112870000D02*
X136377571Y-112870000D01*
X136377571Y-112870000D02*
X136263285Y-112841428D01*
X136263285Y-112841428D02*
X136206142Y-112812857D01*
X136206142Y-112812857D02*
X136149000Y-112755714D01*
X136149000Y-112755714D02*
X136120428Y-112670000D01*
X136120428Y-112670000D02*
X136120428Y-112612857D01*
X136120428Y-112612857D02*
X136149000Y-112527143D01*
X136149000Y-112527143D02*
X136177571Y-112498571D01*
X136120428Y-111955714D02*
X136120428Y-112241428D01*
X136120428Y-112241428D02*
X136406142Y-112270000D01*
X136406142Y-112270000D02*
X136377571Y-112241428D01*
X136377571Y-112241428D02*
X136349000Y-112184286D01*
X136349000Y-112184286D02*
X136349000Y-112041428D01*
X136349000Y-112041428D02*
X136377571Y-111984286D01*
X136377571Y-111984286D02*
X136406142Y-111955714D01*
X136406142Y-111955714D02*
X136463285Y-111927143D01*
X136463285Y-111927143D02*
X136606142Y-111927143D01*
X136606142Y-111927143D02*
X136663285Y-111955714D01*
X136663285Y-111955714D02*
X136691857Y-111984286D01*
X136691857Y-111984286D02*
X136720428Y-112041428D01*
X136720428Y-112041428D02*
X136720428Y-112184286D01*
X136720428Y-112184286D02*
X136691857Y-112241428D01*
X136691857Y-112241428D02*
X136663285Y-112270000D01*
%TO.C,R5*%
X146790428Y-117839999D02*
X146504714Y-118039999D01*
X146790428Y-118182856D02*
X146190428Y-118182856D01*
X146190428Y-118182856D02*
X146190428Y-117954285D01*
X146190428Y-117954285D02*
X146219000Y-117897142D01*
X146219000Y-117897142D02*
X146247571Y-117868571D01*
X146247571Y-117868571D02*
X146304714Y-117839999D01*
X146304714Y-117839999D02*
X146390428Y-117839999D01*
X146390428Y-117839999D02*
X146447571Y-117868571D01*
X146447571Y-117868571D02*
X146476142Y-117897142D01*
X146476142Y-117897142D02*
X146504714Y-117954285D01*
X146504714Y-117954285D02*
X146504714Y-118182856D01*
X146190428Y-117297142D02*
X146190428Y-117582856D01*
X146190428Y-117582856D02*
X146476142Y-117611428D01*
X146476142Y-117611428D02*
X146447571Y-117582856D01*
X146447571Y-117582856D02*
X146419000Y-117525714D01*
X146419000Y-117525714D02*
X146419000Y-117382856D01*
X146419000Y-117382856D02*
X146447571Y-117325714D01*
X146447571Y-117325714D02*
X146476142Y-117297142D01*
X146476142Y-117297142D02*
X146533285Y-117268571D01*
X146533285Y-117268571D02*
X146676142Y-117268571D01*
X146676142Y-117268571D02*
X146733285Y-117297142D01*
X146733285Y-117297142D02*
X146761857Y-117325714D01*
X146761857Y-117325714D02*
X146790428Y-117382856D01*
X146790428Y-117382856D02*
X146790428Y-117525714D01*
X146790428Y-117525714D02*
X146761857Y-117582856D01*
X146761857Y-117582856D02*
X146733285Y-117611428D01*
%TO.C,D2*%
X149660428Y-103662856D02*
X149060428Y-103662856D01*
X149060428Y-103662856D02*
X149060428Y-103519999D01*
X149060428Y-103519999D02*
X149089000Y-103434285D01*
X149089000Y-103434285D02*
X149146142Y-103377142D01*
X149146142Y-103377142D02*
X149203285Y-103348571D01*
X149203285Y-103348571D02*
X149317571Y-103319999D01*
X149317571Y-103319999D02*
X149403285Y-103319999D01*
X149403285Y-103319999D02*
X149517571Y-103348571D01*
X149517571Y-103348571D02*
X149574714Y-103377142D01*
X149574714Y-103377142D02*
X149631857Y-103434285D01*
X149631857Y-103434285D02*
X149660428Y-103519999D01*
X149660428Y-103519999D02*
X149660428Y-103662856D01*
X149117571Y-103091428D02*
X149089000Y-103062856D01*
X149089000Y-103062856D02*
X149060428Y-103005714D01*
X149060428Y-103005714D02*
X149060428Y-102862856D01*
X149060428Y-102862856D02*
X149089000Y-102805714D01*
X149089000Y-102805714D02*
X149117571Y-102777142D01*
X149117571Y-102777142D02*
X149174714Y-102748571D01*
X149174714Y-102748571D02*
X149231857Y-102748571D01*
X149231857Y-102748571D02*
X149317571Y-102777142D01*
X149317571Y-102777142D02*
X149660428Y-103119999D01*
X149660428Y-103119999D02*
X149660428Y-102748571D01*
%TO.C,ZD4*%
X149160428Y-118585714D02*
X149160428Y-118185714D01*
X149160428Y-118185714D02*
X149760428Y-118585714D01*
X149760428Y-118585714D02*
X149760428Y-118185714D01*
X149760428Y-117957142D02*
X149160428Y-117957142D01*
X149160428Y-117957142D02*
X149160428Y-117814285D01*
X149160428Y-117814285D02*
X149189000Y-117728571D01*
X149189000Y-117728571D02*
X149246142Y-117671428D01*
X149246142Y-117671428D02*
X149303285Y-117642857D01*
X149303285Y-117642857D02*
X149417571Y-117614285D01*
X149417571Y-117614285D02*
X149503285Y-117614285D01*
X149503285Y-117614285D02*
X149617571Y-117642857D01*
X149617571Y-117642857D02*
X149674714Y-117671428D01*
X149674714Y-117671428D02*
X149731857Y-117728571D01*
X149731857Y-117728571D02*
X149760428Y-117814285D01*
X149760428Y-117814285D02*
X149760428Y-117957142D01*
X149360428Y-117100000D02*
X149760428Y-117100000D01*
X149131857Y-117242857D02*
X149560428Y-117385714D01*
X149560428Y-117385714D02*
X149560428Y-117014285D01*
%TO.C,R2*%
X156440000Y-100300428D02*
X156240000Y-100014714D01*
X156097143Y-100300428D02*
X156097143Y-99700428D01*
X156097143Y-99700428D02*
X156325714Y-99700428D01*
X156325714Y-99700428D02*
X156382857Y-99729000D01*
X156382857Y-99729000D02*
X156411428Y-99757571D01*
X156411428Y-99757571D02*
X156440000Y-99814714D01*
X156440000Y-99814714D02*
X156440000Y-99900428D01*
X156440000Y-99900428D02*
X156411428Y-99957571D01*
X156411428Y-99957571D02*
X156382857Y-99986142D01*
X156382857Y-99986142D02*
X156325714Y-100014714D01*
X156325714Y-100014714D02*
X156097143Y-100014714D01*
X156668571Y-99757571D02*
X156697143Y-99729000D01*
X156697143Y-99729000D02*
X156754286Y-99700428D01*
X156754286Y-99700428D02*
X156897143Y-99700428D01*
X156897143Y-99700428D02*
X156954286Y-99729000D01*
X156954286Y-99729000D02*
X156982857Y-99757571D01*
X156982857Y-99757571D02*
X157011428Y-99814714D01*
X157011428Y-99814714D02*
X157011428Y-99871857D01*
X157011428Y-99871857D02*
X156982857Y-99957571D01*
X156982857Y-99957571D02*
X156640000Y-100300428D01*
X156640000Y-100300428D02*
X157011428Y-100300428D01*
%TO.C,R6*%
X145230000Y-123540428D02*
X145030000Y-123254714D01*
X144887143Y-123540428D02*
X144887143Y-122940428D01*
X144887143Y-122940428D02*
X145115714Y-122940428D01*
X145115714Y-122940428D02*
X145172857Y-122969000D01*
X145172857Y-122969000D02*
X145201428Y-122997571D01*
X145201428Y-122997571D02*
X145230000Y-123054714D01*
X145230000Y-123054714D02*
X145230000Y-123140428D01*
X145230000Y-123140428D02*
X145201428Y-123197571D01*
X145201428Y-123197571D02*
X145172857Y-123226142D01*
X145172857Y-123226142D02*
X145115714Y-123254714D01*
X145115714Y-123254714D02*
X144887143Y-123254714D01*
X145744286Y-122940428D02*
X145630000Y-122940428D01*
X145630000Y-122940428D02*
X145572857Y-122969000D01*
X145572857Y-122969000D02*
X145544286Y-122997571D01*
X145544286Y-122997571D02*
X145487143Y-123083285D01*
X145487143Y-123083285D02*
X145458571Y-123197571D01*
X145458571Y-123197571D02*
X145458571Y-123426142D01*
X145458571Y-123426142D02*
X145487143Y-123483285D01*
X145487143Y-123483285D02*
X145515714Y-123511857D01*
X145515714Y-123511857D02*
X145572857Y-123540428D01*
X145572857Y-123540428D02*
X145687143Y-123540428D01*
X145687143Y-123540428D02*
X145744286Y-123511857D01*
X145744286Y-123511857D02*
X145772857Y-123483285D01*
X145772857Y-123483285D02*
X145801428Y-123426142D01*
X145801428Y-123426142D02*
X145801428Y-123283285D01*
X145801428Y-123283285D02*
X145772857Y-123226142D01*
X145772857Y-123226142D02*
X145744286Y-123197571D01*
X145744286Y-123197571D02*
X145687143Y-123169000D01*
X145687143Y-123169000D02*
X145572857Y-123169000D01*
X145572857Y-123169000D02*
X145515714Y-123197571D01*
X145515714Y-123197571D02*
X145487143Y-123226142D01*
X145487143Y-123226142D02*
X145458571Y-123283285D01*
%TO.C,C1*%
X157503285Y-105299999D02*
X157531857Y-105328571D01*
X157531857Y-105328571D02*
X157560428Y-105414285D01*
X157560428Y-105414285D02*
X157560428Y-105471428D01*
X157560428Y-105471428D02*
X157531857Y-105557142D01*
X157531857Y-105557142D02*
X157474714Y-105614285D01*
X157474714Y-105614285D02*
X157417571Y-105642856D01*
X157417571Y-105642856D02*
X157303285Y-105671428D01*
X157303285Y-105671428D02*
X157217571Y-105671428D01*
X157217571Y-105671428D02*
X157103285Y-105642856D01*
X157103285Y-105642856D02*
X157046142Y-105614285D01*
X157046142Y-105614285D02*
X156989000Y-105557142D01*
X156989000Y-105557142D02*
X156960428Y-105471428D01*
X156960428Y-105471428D02*
X156960428Y-105414285D01*
X156960428Y-105414285D02*
X156989000Y-105328571D01*
X156989000Y-105328571D02*
X157017571Y-105299999D01*
X157560428Y-104728571D02*
X157560428Y-105071428D01*
X157560428Y-104899999D02*
X156960428Y-104899999D01*
X156960428Y-104899999D02*
X157046142Y-104957142D01*
X157046142Y-104957142D02*
X157103285Y-105014285D01*
X157103285Y-105014285D02*
X157131857Y-105071428D01*
D11*
%TO.C,D1*%
X169090000Y-115010000D02*
X169090000Y-120450000D01*
X168760000Y-115010000D02*
X169090000Y-115010000D01*
X166480000Y-115010000D02*
X166150000Y-115010000D01*
X166150000Y-115010000D02*
X166150000Y-120450000D01*
X169090000Y-115790000D02*
X166150000Y-115790000D01*
X169090000Y-115910000D02*
X166150000Y-115910000D01*
X169090000Y-116030000D02*
X166150000Y-116030000D01*
X169090000Y-120450000D02*
X168760000Y-120450000D01*
X166150000Y-120450000D02*
X166480000Y-120450000D01*
%TO.C,EC2*%
X148320000Y-107000000D02*
G75*
G03*
X148320000Y-107000000I-2120000J0D01*
G01*
%TO.C,R3*%
X144850000Y-117210000D02*
X144850000Y-116260000D01*
X143930000Y-116260000D02*
X145770000Y-116260000D01*
X145770000Y-116260000D02*
X145770000Y-112420000D01*
X143930000Y-112420000D02*
X143930000Y-116260000D01*
X145770000Y-112420000D02*
X143930000Y-112420000D01*
X144850000Y-111470000D02*
X144850000Y-112420000D01*
%TO.C,D3*%
X138590000Y-103000000D02*
X139240000Y-103000000D01*
X139240000Y-101880000D02*
X139240000Y-104120000D01*
X139240000Y-104120000D02*
X143480000Y-104120000D01*
X139840000Y-101880000D02*
X139840000Y-104120000D01*
X139960000Y-101880000D02*
X139960000Y-104120000D01*
X140080000Y-101880000D02*
X140080000Y-104120000D01*
X143480000Y-101880000D02*
X139240000Y-101880000D01*
X143480000Y-104120000D02*
X143480000Y-101880000D01*
X144130000Y-103000000D02*
X143480000Y-103000000D01*
%TO.C,R4*%
X138390000Y-100350000D02*
X139340000Y-100350000D01*
X139340000Y-99430000D02*
X139340000Y-101270000D01*
X139340000Y-101270000D02*
X143180000Y-101270000D01*
X143180000Y-99430000D02*
X139340000Y-99430000D01*
X143180000Y-101270000D02*
X143180000Y-99430000D01*
X144130000Y-100350000D02*
X143180000Y-100350000D01*
%TO.C,R1*%
X167810000Y-108150000D02*
X167810000Y-107200000D01*
X166890000Y-107200000D02*
X168730000Y-107200000D01*
X168730000Y-107200000D02*
X168730000Y-103360000D01*
X166890000Y-103360000D02*
X166890000Y-107200000D01*
X168730000Y-103360000D02*
X166890000Y-103360000D01*
X167810000Y-102410000D02*
X167810000Y-103360000D01*
%TO.C,D1*%
X126810000Y-107270000D02*
X126810000Y-101830000D01*
X127140000Y-107270000D02*
X126810000Y-107270000D01*
X129420000Y-107270000D02*
X129750000Y-107270000D01*
X129750000Y-107270000D02*
X129750000Y-101830000D01*
X126810000Y-106490000D02*
X129750000Y-106490000D01*
X126810000Y-106370000D02*
X129750000Y-106370000D01*
X126810000Y-106250000D02*
X129750000Y-106250000D01*
X126810000Y-101830000D02*
X127140000Y-101830000D01*
X129750000Y-101830000D02*
X129420000Y-101830000D01*
%TO.C,EC1*%
X163450000Y-104350000D02*
G75*
G03*
X163450000Y-104350000I-2120000J0D01*
G01*
%TO.C,Q2*%
X135320000Y-116125000D02*
X135320000Y-119615000D01*
X135320000Y-116125000D02*
X143560000Y-116125000D01*
X135320000Y-119615000D02*
X143560000Y-119615000D01*
X137840000Y-116125000D02*
X137840000Y-117195000D01*
X137840000Y-119295000D02*
X137840000Y-119615000D01*
X141041000Y-116125000D02*
X141041000Y-117705000D01*
X141041000Y-118785000D02*
X141041000Y-119615000D01*
X143560000Y-116125000D02*
X143560000Y-119615000D01*
%TO.C,Q1*%
X139540000Y-106230000D02*
X139690000Y-107080000D01*
X139640000Y-105930000D02*
X139540000Y-106230000D01*
X139690000Y-107080000D02*
X143540000Y-107080000D01*
X140140000Y-104630000D02*
X139890000Y-105280000D01*
X143090000Y-104630000D02*
X140140000Y-104630000D01*
X143540000Y-107080000D02*
X143690000Y-106230000D01*
X143690000Y-106230000D02*
X143090000Y-104630000D01*
%TO.C,D2*%
X126780000Y-120880000D02*
X126780000Y-115440000D01*
X127110000Y-120880000D02*
X126780000Y-120880000D01*
X129390000Y-120880000D02*
X129720000Y-120880000D01*
X129720000Y-120880000D02*
X129720000Y-115440000D01*
X126780000Y-120100000D02*
X129720000Y-120100000D01*
X126780000Y-119980000D02*
X129720000Y-119980000D01*
X126780000Y-119860000D02*
X129720000Y-119860000D01*
X126780000Y-115440000D02*
X127110000Y-115440000D01*
X129720000Y-115440000D02*
X129390000Y-115440000D01*
%TO.C,EC5*%
X141420000Y-112840000D02*
G75*
G03*
X141420000Y-112840000I-2120000J0D01*
G01*
%TO.C,R5*%
X147940000Y-120340000D02*
X147940000Y-119390000D01*
X147020000Y-119390000D02*
X148860000Y-119390000D01*
X148860000Y-119390000D02*
X148860000Y-115550000D01*
X147020000Y-115550000D02*
X147020000Y-119390000D01*
X148860000Y-115550000D02*
X147020000Y-115550000D01*
X147940000Y-114600000D02*
X147940000Y-115550000D01*
%TO.C,D4*%
X130490000Y-120860000D02*
X130490000Y-115420000D01*
X130820000Y-120860000D02*
X130490000Y-120860000D01*
X133100000Y-120860000D02*
X133430000Y-120860000D01*
X133430000Y-120860000D02*
X133430000Y-115420000D01*
X130490000Y-120080000D02*
X133430000Y-120080000D01*
X130490000Y-119960000D02*
X133430000Y-119960000D01*
X130490000Y-119840000D02*
X133430000Y-119840000D01*
X130490000Y-115420000D02*
X130820000Y-115420000D01*
X133430000Y-115420000D02*
X133100000Y-115420000D01*
%TO.C,D2*%
X152560000Y-104490000D02*
X152560000Y-109930000D01*
X152230000Y-104490000D02*
X152560000Y-104490000D01*
X149950000Y-104490000D02*
X149620000Y-104490000D01*
X149620000Y-104490000D02*
X149620000Y-109930000D01*
X152560000Y-105270000D02*
X149620000Y-105270000D01*
X152560000Y-105390000D02*
X149620000Y-105390000D01*
X152560000Y-105510000D02*
X149620000Y-105510000D01*
X152560000Y-109930000D02*
X152230000Y-109930000D01*
X149620000Y-109930000D02*
X149950000Y-109930000D01*
%TO.C,ZD4*%
X151130000Y-120280000D02*
X151130000Y-119630000D01*
X150010000Y-119630000D02*
X152250000Y-119630000D01*
X152250000Y-119630000D02*
X152250000Y-115390000D01*
X150010000Y-119030000D02*
X152250000Y-119030000D01*
X150010000Y-118910000D02*
X152250000Y-118910000D01*
X150010000Y-118790000D02*
X152250000Y-118790000D01*
X150010000Y-115390000D02*
X150010000Y-119630000D01*
X152250000Y-115390000D02*
X150010000Y-115390000D01*
X151130000Y-114740000D02*
X151130000Y-115390000D01*
%TO.C,D3*%
X130600000Y-107280000D02*
X130600000Y-101840000D01*
X130930000Y-107280000D02*
X130600000Y-107280000D01*
X133210000Y-107280000D02*
X133540000Y-107280000D01*
X133540000Y-107280000D02*
X133540000Y-101840000D01*
X130600000Y-106500000D02*
X133540000Y-106500000D01*
X130600000Y-106380000D02*
X133540000Y-106380000D01*
X130600000Y-106260000D02*
X133540000Y-106260000D01*
X130600000Y-101840000D02*
X130930000Y-101840000D01*
X133540000Y-101840000D02*
X133210000Y-101840000D01*
%TO.C,R2*%
X148240000Y-100430000D02*
X149190000Y-100430000D01*
X149190000Y-99510000D02*
X149190000Y-101350000D01*
X149190000Y-101350000D02*
X153030000Y-101350000D01*
X153030000Y-99510000D02*
X149190000Y-99510000D01*
X153030000Y-101350000D02*
X153030000Y-99510000D01*
X153980000Y-100430000D02*
X153030000Y-100430000D01*
%TO.C,R6*%
X137100000Y-121900000D02*
X138050000Y-121900000D01*
X138050000Y-120980000D02*
X138050000Y-122820000D01*
X138050000Y-122820000D02*
X141890000Y-122820000D01*
X141890000Y-120980000D02*
X138050000Y-120980000D01*
X141890000Y-122820000D02*
X141890000Y-120980000D01*
X142840000Y-121900000D02*
X141890000Y-121900000D01*
%TO.C,C1*%
X153280000Y-107850000D02*
X156520000Y-107850000D01*
X153280000Y-107850000D02*
X153280000Y-103010000D01*
X156520000Y-107850000D02*
X156520000Y-103010000D01*
X153280000Y-103010000D02*
X156520000Y-103010000D01*
D10*
%TO.C,T1*%
X165490000Y-108360000D02*
X152990000Y-108360000D01*
X152990000Y-108360000D02*
X152990000Y-123360000D01*
X152990000Y-123360000D02*
X165490000Y-123360000D01*
X165490000Y-123360000D02*
X165490000Y-108360000D01*
%TD*%
M02*
